<svg height="512pt" viewBox="0 0 512 512" width="512pt" xmlns="http://www.w3.org/2000/svg"><path d="m398 318.75c-26.601562 0-52-9.601562-72-27.199219l-87.398438 81.800781c-16.800781 16.199219-43.203124 16.199219-60 0l-119-111.402343v-55.800781h-23.203124c-17.199219 0-31.398438 14-31.398438 31.402343v238.199219c0 17.199219 14 31.398438 31.398438 31.398438h344.800781c17.199219 0 31.402343-14 31.402343-31.398438v-157.800781c-5 .402343-9.800781.800781-14.601562.800781zm0 0" fill="#55acd5"/><path d="m59.601562 206.148438h-23.203124c-9.398438 0-18.199219 4.203124-24.199219 11.402343l47.402343 44.398438zm0 0" fill="#acdef9"/><path d="m238.800781 373.351562c-15 16.597657-40.601562 17.796876-57.199219 2.796876-1-.796876-2-1.796876-2.800781-2.796876l-11.601562-10.800781-155 133c6 7.199219 14.800781 11.398438 24.199219 11.398438h344.800781c9.402343 0 18.199219-4.199219 24.199219-11.398438l-155-133zm0 0" fill="#acdef9"/><path d="m36.398438 206.148438h23.402343v-31.199219l-42.800781 38c5.398438-4.398438 12.199219-6.800781 19.398438-6.800781zm0 0" fill="#55acd5"/><path d="m289.199219 209.949219c0-45.398438 28-86 70.402343-102v-43.800781c0-7-5.601562-12.597657-12.601562-12.597657h-274.800781c-7 0-12.597657 5.597657-12.597657 12.597657v197.800781l119 111.402343c16.796876 16.199219 43.199219 16.199219 60 0l87.398438-81.800781c-23.398438-20.601562-36.800781-50.402343-36.800781-81.601562zm0 0" fill="#e9e9ea"/><path d="m105 108.949219h210v27h-210zm0 0" fill="#ea4647"/><path d="m507 209.949219c0 60.199219-48.800781 109-109 109s-109-48.800781-109-109 48.800781-109 109-109 109 48.800781 109 109zm0 0" fill="#6dcc6d"/><path d="m354 246.148438-29-31c-3.800781-4-3.800781-10.199219.199219-14.199219 4-3.800781 10.199219-3.800781 14.199219.199219.203124.203124.203124.203124.203124.402343l21.199219 22.597657 47.597657-56.199219c3.601562-4.199219 9.800781-4.800781 14-1.199219 4.203124 3.601562 4.800781 9.800781 1.203124 14l-54.800781 64.800781c-3.601562 4.199219-9.800781 4.800781-14 1.199219-.402343 0-.601562-.398438-.800781-.601562zm0 0" fill="#e9e9ea"/><path d="m401.199219 251.351562-10.597657-10.601562c-4-3.800781-4-10.199219-.203124-14.199219 3.800781-4 10.203124-4 14.203124-.199219 0 0 .199219.199219.199219.199219l2.800781 2.800781 47.796876-56.601562c3.601562-4.199219 9.800781-4.800781 14-1.199219 4.203124 3.597657 4.800781 9.800781 1.203124 14l-54.601562 65.199219c-3.601562 4.199219-9.800781 4.800781-14 1.199219-.398438-.199219-.601562-.398438-.800781-.597657zm0 0" fill="#e9e9ea"/><path d="m413.601562 31.949219h-3.601562v-3.597657c0-2.800781-2.199219-5-5-5s-5 2.199219-5 5v3.597657h-3.601562c-2.796876 0-5 2.199219-5 5s2.203124 5 5 5h3.601562v3.601562c0 2.800781 2.199219 5 5 5s5-2.199219 5-5v-3.601562h3.601562c2.796876 0 5-2.199219 5-5s-2.203124-5-5-5zm0 0" fill="#ea4647"/><path d="m374.199219 3.949219c0-.398438-.199219-.597657-.199219-1-.199219-.199219-.199219-.597657-.398438-.800781-.203124-.199219-.402343-.597657-.601562-.796876-2-1.800781-5-1.800781-7 0-.199219.199219-.398438.398438-.601562.796876-.199219.203124-.398438.601562-.398438.800781-.199219.402343-.199219.601562-.199219 1 0 .402343-.199219.601562-.199219 1 0 .402343 0 .601562.199219 1 0 .402343.199219.601562.199219 1 .199219.402343.199219.601562.398438.800781.203124.199219.402343.601562.601562.800781 2 2 5 2 7 0 .199219-.199219.398438-.402343.601562-.800781.199219-.199219.398438-.601562.398438-.800781.199219-.199219.199219-.597657.199219-1 0-.398438 0-.597657.199219-1-.199219-.398438-.199219-.800781-.199219-1zm0 0" fill="#ffcd29"/><path d="m446.199219 393.949219c0-.398438-.199219-.597657-.199219-1-.199219-.199219-.199219-.597657-.398438-.800781-.203124-.199219-.402343-.597657-.601562-.796876-2-1.800781-5-1.800781-7 0-.199219.199219-.398438.398438-.601562.796876-.398438.601562-.597657 1.203124-.796876 1.800781-.203124.601562-.203124 1.402343 0 2 0 .402343.199219.601562.199219 1 .199219.402343.199219.601562.398438.800781s.402343.601562.601562.800781c2 2 5 2 7 0 .199219-.199219.398438-.402343.597657-.800781.203124-.199219.402343-.601562.402343-.800781.199219-.199219.199219-.597657.199219-1 .199219-.800781.199219-1.398438.199219-2zm0 0" fill="#55acd5"/><path d="m22.199219 135.949219c0-.398438-.199219-.597657-.199219-1-.199219-.199219-.199219-.597657-.398438-.800781-.203124-.199219-.402343-.597657-.601562-.796876-2-1.800781-5-1.800781-7 0-.199219.199219-.398438.398438-.601562.796876-.398438.601562-.597657 1.203124-.796876 1.800781-.203124.601562-.203124 1.402343 0 2 0 .402343.199219.601562.199219 1 .199219.402343.199219.601562.398438.800781s.402343.601562.601562.800781c2 2 5 2 7 0 .199219-.199219.398438-.402343.597657-.800781.203124-.199219.402343-.601562.402343-.800781.199219-.199219.199219-.597657.199219-1 .199219-.800781.199219-1.398438.199219-2zm0 0" fill="#ffcd29"/><path d="m473.800781 356.148438c-6.601562-1.199219-11.800781-6.398438-13.199219-13.199219 0-.199219-.203124-.199219-.402343-.199219s-.199219.199219-.199219.199219c-1.199219 6.601562-6.398438 11.800781-13.199219 13.199219-.199219 0-.199219.203124-.199219.402343s.199219.199219.199219.199219c6.597657 1.199219 11.800781 6.398438 13.199219 13.199219 0 .199219.199219.199219.398438.199219.203124 0 .203124-.199219.203124-.199219 1.199219-6.597657 6.398438-11.800781 13.199219-13.199219.199219 0 .199219-.199219.199219-.398438 0-.203124 0-.203124-.199219-.203124zm0 0" fill="#6dcc6d"/><g fill="#231f20"><path d="m398 323.75c-63 0-114-51-114-114s51-114 114-114 114 51 114 114-51 114-114 114zm0-217.800781c-57.398438 0-104 46.601562-104 104 0 57.402343 46.601562 104 104 104s104-46.597657 104-104c0-57.398438-46.601562-104-104-104zm0 0"/><path d="m59.601562 266.949219c-1.203124 0-2.402343-.398438-3.402343-1.398438l-47.398438-44.402343c-2-1.796876-2.199219-4.796876-.402343-6.796876 6.800781-8.402343 17.203124-13.203124 28-13.203124h23.402343c2.800781 0 5 2.203124 5 5v55.800781c-.199219 2.800781-2.402343 5-5.199219 5zm-40.203124-49.597657 35.402343 33v-39.402343h-18.402343c-6.398438.199219-12.398438 2.402343-17 6.402343zm0 0"/><path d="m381.199219 511.949219h-344.800781c-10.796876 0-21.199219-4.800781-28-13.199219-1.796876-2.199219-1.398438-5.199219.601562-7l155-133c2-1.601562 4.800781-1.601562 6.601562.199219l11.597657 10.800781c.199219 0 .199219.199219.199219.199219 13.203124 14.601562 35.601562 15.601562 50.203124 2.402343.796876-.800781 1.597657-1.601562 2.398438-2.402343l.398438-.398438 11.601562-10.800781c1.800781-1.800781 4.800781-1.800781 6.601562-.199219l155 133c2 1.800781 2.398438 4.800781.597657 7-7 8.597657-17.199219 13.398438-28 13.398438zm-361.800781-16c4.800781 4 10.601562 6 16.800781 6h344.800781c6.199219 0 12-2.199219 16.800781-6l-147.601562-126.597657-8 7.597657c-8.597657 9.402343-20.800781 14.800781-33.597657 14.800781-12.800781 0-25-5.398438-33.601562-14.800781l-8-7.597657zm219.402343-122.597657"/><path d="m16.800781 217.949219c-2.800781 0-5-2.199219-5-5 0-1.398438.597657-2.800781 1.597657-3.800781l42.800781-38c2-1.796876 5.199219-1.597657 7 .402343.800781 1 1.199219 2 1.199219 3.398438v31.199219c0 2.800781-2.199219 5-5 5h-23c-6 0-11.796876 2-16.398438 5.800781-1 .601562-2 1-3.199219 1zm20.800781-16.800781h17v-15.199219zm0 0"/><path d="m208.800781 390.550781c-12.601562 0-24.601562-4.800781-33.601562-13.601562l-119-111.199219c-1-1-1.597657-2.199219-1.597657-3.601562v-198c0-9.597657 7.796876-17.597657 17.597657-17.597657h275c9.601562 0 17.601562 7.800781 17.601562 17.597657v43.800781c0 2-1.199219 4-3.199219 4.601562-53.601562 20.199219-80.800781 80.199219-60.601562 133.800781 6 16 15.800781 30.199219 28.601562 41.398438 2 1.800781 2.199219 5 .398438 7-.199219.199219-.199219.199219-.398438.398438l-87.402343 81.800781c-9 8.800781-21 13.601562-33.398438 13.601562zm-144.199219-130.800781 117.398438 110c7 7 16.601562 11 26.601562 10.800781h.199219c9.800781 0 19.398438-3.800781 26.398438-10.800781l83.601562-78.199219c-45.199219-43.800781-46.199219-115.800781-2.601562-161 10.800781-11.199219 24-20 38.402343-26v-40.402343c0-4.199219-3.402343-7.597657-7.601562-7.597657h-274.800781c-4.199219 0-7.597657 3.398438-7.597657 7.597657zm0 0"/><path d="m381.199219 511.949219h-344.800781c-20.199219 0-36.398438-16.199219-36.398438-36.398438v-238.199219c0-20 16.199219-36.203124 36.398438-36.402343h23.402343c2.800781 0 5 2.199219 5 5v53.601562l117.398438 110c14.800781 14.398438 38.199219 14.398438 53 .199219l87.601562-82c1.800781-1.800781 4.800781-1.800781 6.800781-.199219 19 16.800781 43.398438 26 68.597657 26 4.601562 0 9.199219-.402343 13.800781-1 2.800781-.402343 5.199219 1.597657 5.601562 4.398438v.601562 157.800781c-.203124 20.398438-16.402343 36.597657-36.402343 36.597657zm-344.800781-300.800781c-14.597657 0-26.199219 11.800781-26.398438 26.402343v238.199219c0 14.601562 11.800781 26.199219 26.398438 26.398438h344.800781c14.601562 0 26.199219-11.796876 26.402343-26.398438v-152.199219c-3.203124.199219-6.402343.398438-9.402343.398438-26.199219 0-51.398438-9-71.800781-25.398438l-84.199219 78.800781c-9 8.597657-20.800781 13.597657-33.199219 13.597657h-.199219c-12.601562.199219-24.601562-4.800781-33.402343-13.597657l-119-111.203124c-1-1-1.597657-2.199219-1.597657-3.597657v-50.800781h-18.402343zm0 0"/><path d="m361.199219 254.351562c-4.199219 0-8.199219-1.800781-11-4.800781l-29-31c-5.597657-6.199219-5.199219-15.601562 1-21.199219 6-5.402343 15.199219-5.203124 20.800781.796876l17.398438 18.601562 44-52c5.402343-6.398438 14.800781-7.199219 21.203124-1.800781 6.398438 5.402343 7.199219 14.800781 1.796876 21.199219l-54.796876 64.800781c-2.800781 3.199219-6.800781 5.199219-11 5.402343zm-3.597657-11.601562c1 1 2.398438 1.601562 3.796876 1.601562 1.402343 0 2.800781-.601562 3.601562-1.800781l55-64.800781c1.800781-2.199219 1.398438-5.199219-.601562-7s-5.199219-1.398438-7 .601562l-47.597657 56.199219c-1.800781 2.199219-5 2.398438-7 .597657-.199219-.199219-.199219-.199219-.402343-.398438l-21.398438-22.800781c-1.800781-2-5-2.199219-7-.199219s-2.199219 5-.199219 7zm0 0"/><path d="m408.398438 259.148438c-4 0-7.796876-1.597657-10.597657-4.398438l-10.601562-10.398438c-5.800781-5.800781-5.800781-15.402343 0-21.203124 5.402343-5.398438 14.199219-5.796876 20.199219-1l44.402343-52.398438c5.398438-6.398438 14.800781-7.199219 21.199219-1.800781 6.398438 5.402343 7.199219 14.800781 1.800781 21.199219l-55 64.800781c-2.800781 3.199219-6.601562 5.199219-10.800781 5.199219-.199219 0-.398438 0-.601562 0zm-10.597657-30.398438c-2.800781 0-5 2.199219-5 5 0 1.398438.597657 2.601562 1.398438 3.601562l10.601562 10.597657c2 2 5.199219 2 7 0 0 0 .199219-.199219.199219-.398438l54.800781-64.800781c1.800781-2 1.597657-5.199219-.402343-7s-5.199219-1.601562-7 .398438v.203124l-47.796876 56.597657c-1.800781 2.199219-5 2.402343-7 .601562-.203124 0-.203124-.199219-.402343-.199219l-2.800781-2.800781c-1-1.199219-2.199219-1.800781-3.597657-1.800781zm0 0"/><path d="m289.601562 224.351562h-184.800781c-2.800781 0-5-2.203124-5-5 0-2.800781 2.199219-5 5-5h184.800781c2.796876 0 5 2.199219 5 5 0 2.796876-2.203124 5-5 5zm0 0"/><path d="m290.601562 197.148438h-185.800781c-2.800781 0-5-2.199219-5-5 0-2.796876 2.199219-5 5-5h185.800781c2.796876 0 5 2.203124 5 5 0 2.800781-2.203124 5-5 5zm0 0"/><path d="m299 169.949219h-194.199219c-2.800781 0-5-2.199219-5-5s2.199219-5 5-5h194.199219c2.800781 0 5 2.199219 5 5s-2.199219 5-5 5zm0 0"/><path d="m310 278.75h-205.199219c-2.800781 0-5-2.199219-5-5s2.199219-5 5-5h205.199219c2.800781 0 5 2.199219 5 5s-2.398438 5-5 5zm0 0"/><path d="m314.398438 305.949219h-209.597657c-2.800781 0-5-2.199219-5-5s2.199219-5 5-5h209.597657c2.800781 0 5 2.199219 5 5s-2.398438 5-5 5zm0 0"/><path d="m295.601562 251.550781h-190.800781c-2.800781 0-5-2.199219-5-5s2.199219-5 5-5h190.800781c2.796876 0 5 2.199219 5 5s-2.402343 5-5 5zm0 0"/><path d="m287 333.148438h-156.601562c-2.796876 0-5-2.199219-5-5 0-2.796876 2.203124-5 5-5h156.800781c2.800781 0 5 2.203124 5 5 0 2.800781-2.398438 5-5.199219 5zm0 0"/><path d="m315 140.949219h-210c-2.800781 0-5-2.199219-5-5v-27c0-2.800781 2.199219-5 5-5h210c2.800781 0 5 2.199219 5 5v27c0 2.800781-2.199219 5-5 5zm-205-10h200v-17h-200zm0 0"/></g></svg>