<svg height="512" viewBox="0 0 64 64" width="512" xmlns="http://www.w3.org/2000/svg"><g id="Artboard_17" data-name="Artboard 17"><rect fill="#3ecd4e" height="19" rx="6" width="60" x="2" y="7"/><path d="m56 7h-48a6 6 0 0 0 -1 .09v9.9a6 6 0 0 0 6 6h48c.069 0 .135-.008.2-.01a5.965 5.965 0 0 0 .8-2.98v-7a6 6 0 0 0 -6-6z" fill="#49e253"/><g fill="#f2f2f2"><path d="m34.293 10.293-1.293 1.293v-1.586h-2v1.586l-1.293-1.293-1.414 1.414 2.293 2.293-2.293 2.293 1.414 1.414 1.293-1.293v1.586h2v-1.586l1.293 1.293 1.414-1.414-2.293-2.293 2.293-2.293z"/><path d="m44.293 10.293-1.293 1.293v-1.586h-2v1.586l-1.293-1.293-1.414 1.414 2.293 2.293-2.293 2.293 1.414 1.414 1.293-1.293v1.586h2v-1.586l1.293 1.293 1.414-1.414-2.293-2.293 2.293-2.293z"/><path d="m55.707 11.707-1.414-1.414-1.293 1.293v-1.586h-2v1.586l-1.293-1.293-1.414 1.414 2.293 2.293-2.293 2.293 1.414 1.414 1.293-1.293v1.586h2v-1.586l1.293 1.293 1.414-1.414-2.293-2.293z"/><path d="m14.293 10.293-1.293 1.293v-1.586h-2v1.586l-1.293-1.293-1.414 1.414 2.293 2.293-2.293 2.293 1.414 1.414 1.293-1.293v1.586h2v-1.586l1.293 1.293 1.414-1.414-2.293-2.293 2.293-2.293z"/><path d="m24.293 10.293-1.293 1.293v-1.586h-2v1.586l-1.293-1.293-1.414 1.414 2.293 2.293-2.293 2.293 1.414 1.414 1.293-1.293v1.586h2v-1.586l1.293 1.293 1.414-1.414-2.293-2.293 2.293-2.293z"/><path d="m9 20h6v2h-6z"/><path d="m19 20h6v2h-6z"/><path d="m29 20h6v2h-6z"/><path d="m39 20h6v2h-6z"/><path d="m49 20h6v2h-6z"/></g><path d="m22 43.989h20v13h-20z" fill="#ffb127"/><path d="m25 49.943a4.046 4.046 0 0 0 4.046 4.046h12.954v-10h-17z" fill="#ffd55d"/><path d="m37 43.989v-6a5 5 0 0 0 -5-5 5 5 0 0 0 -5 5v6h-3v-6a8 8 0 0 1 8-8 8 8 0 0 1 8 8v6z" fill="#e5e5e5"/><path d="m38 45.989h2v2h-2z" fill="#f2f2f2"/><path d="m24 45.989h2v2h-2z" fill="#f2f2f2"/><path d="m24 52.989h2v2h-2z" fill="#f2f2f2"/><path d="m38 52.989h2v2h-2z" fill="#f2f2f2"/><path d="m32 29.989a8 8 0 0 0 -8 8v4h.924a1.076 1.076 0 0 0 1.076-1.076v-2.924a6 6 0 0 1 12 0v2.924a1.076 1.076 0 0 0 1.076 1.076h.924v-4a8 8 0 0 0 -8-8z" fill="#f2f2f2"/><path d="m32 29a9.01 9.01 0 0 0 -9 9v5h-1a1 1 0 0 0 -1 1v13a1 1 0 0 0 1 1h20a1 1 0 0 0 1-1v-13a1 1 0 0 0 -1-1h-1v-5a9.01 9.01 0 0 0 -9-9zm-7 9a7 7 0 0 1 14 0v5h-1v-5a6 6 0 0 0 -12 0v5h-1zm11 5h-8v-5a4 4 0 0 1 8 0zm5 13h-18v-11h18z"/><path d="m38 46h2v2h-2z"/><path d="m24 46h2v2h-2z"/><path d="m24 53h2v2h-2z"/><path d="m38 53h2v2h-2z"/><path d="m56 6h-48a7.008 7.008 0 0 0 -7 7v7a7.008 7.008 0 0 0 7 7h48a7.008 7.008 0 0 0 7-7v-7a7.008 7.008 0 0 0 -7-7zm5 14a5.006 5.006 0 0 1 -5 5h-48a5.006 5.006 0 0 1 -5-5v-7a5.006 5.006 0 0 1 5-5h48a5.006 5.006 0 0 1 5 5z"/><path d="m34.293 10.293-1.293 1.293v-1.586h-2v1.586l-1.293-1.293-1.414 1.414 2.293 2.293-2.293 2.293 1.414 1.414 1.293-1.293v1.586h2v-1.586l1.293 1.293 1.414-1.414-2.293-2.293 2.293-2.293z"/><path d="m44.293 10.293-1.293 1.293v-1.586h-2v1.586l-1.293-1.293-1.414 1.414 2.293 2.293-2.293 2.293 1.414 1.414 1.293-1.293v1.586h2v-1.586l1.293 1.293 1.414-1.414-2.293-2.293 2.293-2.293z"/><path d="m54.293 10.293-1.293 1.293v-1.586h-2v1.586l-1.293-1.293-1.414 1.414 2.293 2.293-2.293 2.293 1.414 1.414 1.293-1.293v1.586h2v-1.586l1.293 1.293 1.414-1.414-2.293-2.293 2.293-2.293z"/><path d="m14.293 10.293-1.293 1.293v-1.586h-2v1.586l-1.293-1.293-1.414 1.414 2.293 2.293-2.293 2.293 1.414 1.414 1.293-1.293v1.586h2v-1.586l1.293 1.293 1.414-1.414-2.293-2.293 2.293-2.293z"/><path d="m24.293 10.293-1.293 1.293v-1.586h-2v1.586l-1.293-1.293-1.414 1.414 2.293 2.293-2.293 2.293 1.414 1.414 1.293-1.293v1.586h2v-1.586l1.293 1.293 1.414-1.414-2.293-2.293 2.293-2.293z"/><path d="m9 20h6v2h-6z"/><path d="m19 20h6v2h-6z"/><path d="m29 20h6v2h-6z"/><path d="m39 20h6v2h-6z"/><path d="m49 20h6v2h-6z"/></g></svg>